<svg id="Ebene_1" data-name="Ebene 1" xmlns="http://www.w3.org/2000/svg" viewBox="0 0 328.99 179.01"><defs><style>.cls-1{fill:#6bbaa7;}.cls-2{font-size:28px;font-family:SansBlack;}.cls-2,.cls-3{fill:#fff;}</style></defs><title>ADS_Call_Premium-Ad-Space</title><rect class="cls-1" width="328.99" height="179.01"/><text class="cls-2" transform="translate(28.53 64.46)">PREMIUM AD SPACE</text><path class="cls-3" d="M31.33,102.61l-2.82-5.75h1.28L31,99.51c.3.69.58,1.35.91,2H32c.33-.7.65-1.36.94-2l1.21-2.65h1.24l-2.82,5.75v3.64h-1.2Z" transform="translate(0 0)"/><path class="cls-3" d="M35.4,102.78c0-2.32,1.52-3.66,3.23-3.66s3.22,1.34,3.22,3.66a3.25,3.25,0,1,1-6.45,0Zm5.23,0c0-1.59-.81-2.68-2-2.68s-2,1.09-2,2.68.81,2.66,2,2.66S40.63,104.37,40.63,102.78Z" transform="translate(0 0)"/><path class="cls-3" d="M43.58,103.7V99.3h1.17v4.25c0,1.29.4,1.85,1.32,1.85.71,0,1.2-.36,1.86-1.17V99.3H49.1v7h-1l-.1-1.09h0a2.94,2.94,0,0,1-2.29,1.26C44.24,106.42,43.58,105.47,43.58,103.7Z" transform="translate(0 0)"/><path class="cls-3" d="M53.88,104.44c0-1.51,1.31-2.27,4.27-2.59,0-.9-.3-1.76-1.44-1.76a3.81,3.81,0,0,0-2.07.75l-.46-.81a5.12,5.12,0,0,1,2.73-.91c1.7,0,2.41,1.13,2.41,2.86v4.27h-1l-.1-.84h0a3.63,3.63,0,0,1-2.29,1A1.89,1.89,0,0,1,53.88,104.44Zm4.27.11v-1.93c-2.33.28-3.12.85-3.12,1.74s.54,1.11,1.22,1.11A2.88,2.88,0,0,0,58.15,104.55Z" transform="translate(0 0)"/><path class="cls-3" d="M61.52,99.3h1l.1,1.26h0a2.39,2.39,0,0,1,2-1.44,1.57,1.57,0,0,1,.75.15l-.22,1a1.87,1.87,0,0,0-.68-.11c-.59,0-1.29.42-1.76,1.59v4.47H61.52Z" transform="translate(0 0)"/><path class="cls-3" d="M65.82,102.78c0-2.26,1.52-3.66,3.12-3.66,1.78,0,2.78,1.28,2.78,3.27a3.16,3.16,0,0,1-.06.66H67a2.32,2.32,0,0,0,2.31,2.43,3,3,0,0,0,1.73-.55l.42.77a4.07,4.07,0,0,1-2.29.72A3.33,3.33,0,0,1,65.82,102.78Zm4.86-.57c0-1.39-.63-2.15-1.71-2.15a2.14,2.14,0,0,0-2,2.15Z" transform="translate(0 0)"/><path class="cls-3" d="M76.07,97.11a.82.82,0,0,1,1.63,0,.82.82,0,0,1-1.63,0Zm.22,2.19h1.18v7H76.29Z" transform="translate(0 0)"/><path class="cls-3" d="M79.81,99.3h1l.1,1h0a3.31,3.31,0,0,1,2.33-1.18c1.46,0,2.12.95,2.12,2.72v4.41H84.19V102c0-1.29-.39-1.84-1.31-1.84a2.65,2.65,0,0,0-1.9,1.06v5H79.81Z" transform="translate(0 0)"/><path class="cls-3" d="M87.84,104.1v-3.85h-1v-.89l1.09-.06.14-2h1v2h1.88v1H89v3.87c0,.85.28,1.34,1.08,1.34a2.23,2.23,0,0,0,.79-.19l.22.89a4.17,4.17,0,0,1-1.28.26C88.34,106.42,87.84,105.48,87.84,104.1Z" transform="translate(0 0)"/><path class="cls-3" d="M91.75,102.78c0-2.26,1.52-3.66,3.12-3.66,1.77,0,2.77,1.28,2.77,3.27a4.13,4.13,0,0,1,0,.66H92.91a2.3,2.3,0,0,0,2.31,2.43,3.07,3.07,0,0,0,1.73-.55l.42.77a4.08,4.08,0,0,1-2.3.72A3.32,3.32,0,0,1,91.75,102.78Zm4.85-.57c0-1.39-.62-2.15-1.71-2.15a2.13,2.13,0,0,0-2,2.15Z" transform="translate(0 0)"/><path class="cls-3" d="M99.36,99.3h1l.1,1.26h0a2.39,2.39,0,0,1,2-1.44,1.53,1.53,0,0,1,.74.15l-.22,1a1.81,1.81,0,0,0-.67-.11c-.59,0-1.29.42-1.76,1.59v4.47H99.36Z" transform="translate(0 0)"/><path class="cls-3" d="M103.66,102.78c0-2.26,1.52-3.66,3.12-3.66,1.78,0,2.78,1.28,2.78,3.27a4,4,0,0,1-.06.66h-4.68a2.31,2.31,0,0,0,2.31,2.43,3,3,0,0,0,1.73-.55l.42.77a4.07,4.07,0,0,1-2.29.72A3.32,3.32,0,0,1,103.66,102.78Zm4.86-.57c0-1.39-.63-2.15-1.72-2.15a2.14,2.14,0,0,0-2,2.15Z" transform="translate(0 0)"/><path class="cls-3" d="M110.5,105.45l.58-.77a3.14,3.14,0,0,0,2,.82c.91,0,1.36-.48,1.36-1.08s-.82-1-1.59-1.31c-1-.36-2.07-.84-2.07-2s.89-2,2.4-2a3.52,3.52,0,0,1,2.16.79l-.56.75a2.65,2.65,0,0,0-1.59-.62c-.87,0-1.28.47-1.28,1s.76.91,1.55,1.2c1,.38,2.11.79,2.11,2.11,0,1.13-.89,2.07-2.53,2.07A4.13,4.13,0,0,1,110.5,105.45Z" transform="translate(0 0)"/><path class="cls-3" d="M117.18,104.1v-3.85h-1v-.89l1.08-.06.14-2h1v2h1.89v1h-1.89v3.87c0,.85.28,1.34,1.08,1.34a2.13,2.13,0,0,0,.79-.19l.23.89a4.29,4.29,0,0,1-1.29.26C117.68,106.42,117.18,105.48,117.18,104.1Z" transform="translate(0 0)"/><path class="cls-3" d="M121.09,102.78c0-2.26,1.52-3.66,3.12-3.66,1.78,0,2.78,1.28,2.78,3.27a3.16,3.16,0,0,1-.06.66h-4.68a2.32,2.32,0,0,0,2.31,2.43,3,3,0,0,0,1.73-.55l.42.77a4.07,4.07,0,0,1-2.29.72A3.32,3.32,0,0,1,121.09,102.78Zm4.86-.57c0-1.39-.63-2.15-1.71-2.15a2.14,2.14,0,0,0-2,2.15Z" transform="translate(0 0)"/><path class="cls-3" d="M128.2,102.78c0-2.25,1.43-3.66,3-3.66a2.86,2.86,0,0,1,1.95.81l0-1.19V96.06h1.17v10.19h-1l-.1-.82h0a3.07,3.07,0,0,1-2.1,1C129.33,106.42,128.2,105.1,128.2,102.78Zm4.91,1.7v-3.64a2.45,2.45,0,0,0-1.7-.73c-1.11,0-2,1.08-2,2.66s.69,2.66,1.91,2.66A2.38,2.38,0,0,0,133.11,104.48Z" transform="translate(0 0)"/><path class="cls-3" d="M139.28,97.11a.81.81,0,1,1,.81.76A.77.77,0,0,1,139.28,97.11Zm.22,2.19h1.17v7H139.5Z" transform="translate(0 0)"/><path class="cls-3" d="M143,99.3h1l.1,1h0a3.35,3.35,0,0,1,2.33-1.18c1.47,0,2.13.95,2.13,2.72v4.41H147.4V102c0-1.29-.39-1.84-1.31-1.84a2.65,2.65,0,0,0-1.9,1.06v5H143Z" transform="translate(0 0)"/><path class="cls-3" d="M153.7,99.3h1l.1.8h0a3.66,3.66,0,0,1,2.21-1c1.8,0,2.76,1.4,2.76,3.55,0,2.36-1.43,3.75-3,3.75a3.18,3.18,0,0,1-1.93-.81l0,1.22v2.35H153.7Zm4.86,3.38c0-1.54-.52-2.57-1.83-2.57a2.9,2.9,0,0,0-1.86,1v3.65a2.75,2.75,0,0,0,1.69.72C157.71,105.43,158.56,104.39,158.56,102.68Z" transform="translate(0 0)"/><path class="cls-3" d="M161.57,104.85V96.06h1.18v8.88c0,.36.16.5.33.5a1,1,0,0,0,.26,0l.16.9a1.92,1.92,0,0,1-.68.11C161.94,106.42,161.57,105.86,161.57,104.85Z" transform="translate(0 0)"/><path class="cls-3" d="M164.79,104.44c0-1.51,1.31-2.27,4.27-2.59,0-.9-.3-1.76-1.44-1.76a3.81,3.81,0,0,0-2.07.75l-.46-.81a5.12,5.12,0,0,1,2.73-.91c1.7,0,2.41,1.13,2.41,2.86v4.27h-1l-.1-.84h0a3.68,3.68,0,0,1-2.3,1A1.89,1.89,0,0,1,164.79,104.44Zm4.27.11v-1.93c-2.33.28-3.12.85-3.12,1.74s.54,1.11,1.22,1.11A2.88,2.88,0,0,0,169.06,104.55Z" transform="translate(0 0)"/><path class="cls-3" d="M171.91,102.78a3.38,3.38,0,0,1,3.35-3.66,2.92,2.92,0,0,1,2,.82l-.6.78a2,2,0,0,0-1.38-.62c-1.26,0-2.18,1.09-2.18,2.68s.87,2.66,2.15,2.66a2.52,2.52,0,0,0,1.63-.69l.51.78a3.38,3.38,0,0,1-2.25.89C173.32,106.42,171.91,105.08,171.91,102.78Z" transform="translate(0 0)"/><path class="cls-3" d="M178.73,97.11a.82.82,0,0,1,1.63,0,.82.82,0,0,1-1.63,0ZM179,99.3h1.17v7H179Z" transform="translate(0 0)"/><path class="cls-3" d="M182.47,99.3h1l.1,1h0a3.31,3.31,0,0,1,2.33-1.18c1.46,0,2.12.95,2.12,2.72v4.41h-1.18V102c0-1.29-.39-1.84-1.31-1.84a2.65,2.65,0,0,0-1.9,1.06v5h-1.17Z" transform="translate(0 0)"/><path class="cls-3" d="M189.76,107.58a2,2,0,0,1,1-1.57V106a1.29,1.29,0,0,1-.62-1.14,1.68,1.68,0,0,1,.76-1.29v0a2.42,2.42,0,0,1-.9-1.87,2.47,2.47,0,0,1,2.61-2.48,2.72,2.72,0,0,1,1,.18H196v.9h-1.43a2,2,0,0,1,.57,1.43,2.38,2.38,0,0,1-2.55,2.41,2.46,2.46,0,0,1-1-.23,1,1,0,0,0-.45.82c0,.44.29.75,1.22.75h1.35c1.62,0,2.43.51,2.43,1.66s-1.37,2.4-3.51,2.4C190.94,109.44,189.76,108.78,189.76,107.58Zm5.24-.36c0-.64-.49-.87-1.4-.87h-1.2a3.7,3.7,0,0,1-.9-.1,1.44,1.44,0,0,0-.71,1.17c0,.74.75,1.21,2,1.21S195,107.94,195,107.22Zm-.89-5.62a1.49,1.49,0,1,0-3,0,1.49,1.49,0,1,0,3,0Z" transform="translate(0 0)"/><path class="cls-3" d="M199.66,109.1l.23-.94a1.72,1.72,0,0,0,.53.11c.78,0,1.28-.63,1.56-1.5l.16-.51-2.79-7h1.22l1.41,3.84c.22.61.46,1.32.68,2h.06c.2-.63.39-1.34.58-2l1.24-3.84h1.15l-2.61,7.52c-.49,1.38-1.21,2.42-2.61,2.42A2.35,2.35,0,0,1,199.66,109.1Z" transform="translate(0 0)"/><path class="cls-3" d="M206.46,102.78c0-2.32,1.52-3.66,3.22-3.66s3.22,1.34,3.22,3.66a3.24,3.24,0,1,1-6.44,0Zm5.23,0c0-1.59-.81-2.68-2-2.68s-2,1.09-2,2.68.81,2.66,2,2.66S211.69,104.37,211.69,102.78Z" transform="translate(0 0)"/><path class="cls-3" d="M214.63,103.7V99.3h1.18v4.25c0,1.29.39,1.85,1.31,1.85.71,0,1.2-.36,1.86-1.17V99.3h1.18v7h-1l-.1-1.09h0a3,3,0,0,1-2.29,1.26C215.29,106.42,214.63,105.47,214.63,103.7Z" transform="translate(0 0)"/><path class="cls-3" d="M222.51,99.3h1l.1,1.26h0a2.39,2.39,0,0,1,2-1.44,1.5,1.5,0,0,1,.74.15l-.22,1a1.78,1.78,0,0,0-.67-.11c-.59,0-1.29.42-1.76,1.59v4.47h-1.17Z" transform="translate(0 0)"/><path class="cls-3" d="M229.9,104.44c0-1.51,1.3-2.27,4.27-2.59,0-.9-.3-1.76-1.44-1.76a3.78,3.78,0,0,0-2.07.75l-.46-.81a5.09,5.09,0,0,1,2.73-.91c1.69,0,2.41,1.13,2.41,2.86v4.27h-1l-.1-.84h0a3.63,3.63,0,0,1-2.3,1A1.89,1.89,0,0,1,229.9,104.44Zm4.27.11v-1.93c-2.33.28-3.12.85-3.12,1.74s.54,1.11,1.22,1.11A2.9,2.9,0,0,0,234.17,104.55Z" transform="translate(0 0)"/><path class="cls-3" d="M237,102.78c0-2.25,1.42-3.66,3-3.66a2.84,2.84,0,0,1,1.94.81l-.05-1.19V96.06h1.18v10.19h-1l-.1-.82h0a3.07,3.07,0,0,1-2.11,1C238.17,106.42,237,105.1,237,102.78Zm4.9,1.7v-3.64a2.43,2.43,0,0,0-1.69-.73c-1.11,0-2,1.08-2,2.66s.68,2.66,1.9,2.66A2.37,2.37,0,0,0,241.94,104.48Z" transform="translate(0 0)"/><path class="cls-3" d="M247.9,104.44c0-1.51,1.31-2.27,4.27-2.59,0-.9-.3-1.76-1.44-1.76a3.81,3.81,0,0,0-2.07.75l-.46-.81a5.12,5.12,0,0,1,2.73-.91c1.7,0,2.42,1.13,2.42,2.86v4.27h-1l-.1-.84h0a3.68,3.68,0,0,1-2.3,1A1.89,1.89,0,0,1,247.9,104.44Zm4.27.11v-1.93c-2.33.28-3.12.85-3.12,1.74s.54,1.11,1.22,1.11A2.88,2.88,0,0,0,252.17,104.55Z" transform="translate(0 0)"/><path class="cls-3" d="M255.54,104.1v-3.85h-1v-.89l1.09-.06.14-2h1v2h1.88v1h-1.88v3.87c0,.85.27,1.34,1.08,1.34a2.23,2.23,0,0,0,.79-.19l.22.89a4.23,4.23,0,0,1-1.29.26C256.05,106.42,255.54,105.48,255.54,104.1Z" transform="translate(0 0)"/><path class="cls-3" d="M263.14,96.86h2.79c1.91,0,3.22.65,3.22,2.3a2.05,2.05,0,0,1-1.37,2v.06a2.16,2.16,0,0,1,1.91,2.24c0,1.84-1.46,2.75-3.55,2.75h-3Zm2.59,4c1.59,0,2.25-.59,2.25-1.54s-.75-1.51-2.2-1.51h-1.44v3Zm.24,4.44c1.6,0,2.55-.58,2.55-1.84s-.91-1.69-2.55-1.69h-1.63v3.53Z" transform="translate(0 0)"/><path class="cls-3" d="M271.2,105.53a.85.85,0,1,1,.85.89A.86.86,0,0,1,271.2,105.53Z" transform="translate(0 0)"/><path class="cls-3" d="M277,96.86h1.35l3.17,9.39H280.3L278.66,101c-.34-1.05-.64-2.08-.94-3.17h-.06c-.29,1.09-.59,2.12-.93,3.17l-1.65,5.24h-1.21Zm-1.51,5.57h4.32v1h-4.32Z" transform="translate(0 0)"/><path class="cls-3" d="M282.54,105.53a.85.85,0,1,1,.85.89A.86.86,0,0,1,282.54,105.53Z" transform="translate(0 0)"/><path class="cls-3" d="M286.45,96.86h2.35c2.88,0,4.43,1.68,4.43,4.66s-1.55,4.73-4.38,4.73h-2.4Zm2.26,8.41c2.19,0,3.29-1.38,3.29-3.75s-1.1-3.68-3.29-3.68h-1.07v7.43Z" transform="translate(0 0)"/><path class="cls-3" d="M298.2,98.86a1.29,1.29,0,0,0-1.37-1.39,2.24,2.24,0,0,0-1.65.82l-.67-.61A3.22,3.22,0,0,1,297,96.49a2.19,2.19,0,0,1,2.4,2.29c0,1.88-2.31,2.63-2.07,4.63h-1.05C295.94,101.19,298.2,100.37,298.2,98.86Zm-2.26,6.67a.86.86,0,1,1,.86.89A.87.87,0,0,1,295.94,105.53Z" transform="translate(0 0)"/><path class="cls-3" d="M29.81,114h2.68c2.1,0,3.52.71,3.52,2.77s-1.41,2.89-3.46,2.89H31v3.73H29.81Zm2.59,4.7c1.64,0,2.42-.6,2.42-1.93S34,115,32.34,115H31v3.73Z" transform="translate(0 0)"/><path class="cls-3" d="M37.79,122v-8.79H39v8.88c0,.36.16.5.33.5a1,1,0,0,0,.26,0l.15.9a1.81,1.81,0,0,1-.67.11C38.16,123.58,37.79,123,37.79,122Z" transform="translate(0 0)"/><path class="cls-3" d="M40.92,119.94a3.36,3.36,0,0,1,3.13-3.66c1.77,0,2.77,1.28,2.77,3.27a4.13,4.13,0,0,1,0,.66H42.09a2.3,2.3,0,0,0,2.31,2.43,3,3,0,0,0,1.73-.56l.42.78a4.08,4.08,0,0,1-2.3.72A3.33,3.33,0,0,1,40.92,119.94Zm4.86-.57c0-1.39-.62-2.15-1.71-2.15a2.13,2.13,0,0,0-2,2.15Z" transform="translate(0 0)"/><path class="cls-3" d="M47.9,121.6c0-1.51,1.31-2.27,4.27-2.59,0-.9-.3-1.76-1.43-1.76a3.81,3.81,0,0,0-2.08.75l-.46-.81a5.12,5.12,0,0,1,2.73-.91c1.7,0,2.42,1.13,2.42,2.86v4.27h-1l-.1-.83h0a3.7,3.7,0,0,1-2.3,1A1.89,1.89,0,0,1,47.9,121.6Zm4.27.11v-1.93c-2.33.28-3.12.85-3.12,1.74s.54,1.11,1.22,1.11A2.88,2.88,0,0,0,52.17,121.71Z" transform="translate(0 0)"/><path class="cls-3" d="M54.77,122.61l.58-.77a3.11,3.11,0,0,0,2,.82c.91,0,1.37-.49,1.37-1.08s-.82-1-1.59-1.32c-1-.35-2.08-.83-2.08-2s.9-2,2.4-2a3.5,3.5,0,0,1,2.16.79l-.56.75a2.64,2.64,0,0,0-1.58-.62c-.88,0-1.28.47-1.28,1s.75.91,1.54,1.2c1,.38,2.12.79,2.12,2.11,0,1.13-.9,2.07-2.54,2.07A4.16,4.16,0,0,1,54.77,122.61Z" transform="translate(0 0)"/><path class="cls-3" d="M61,119.94c0-2.26,1.52-3.66,3.12-3.66,1.77,0,2.77,1.28,2.77,3.27a4.13,4.13,0,0,1,0,.66H62.18a2.3,2.3,0,0,0,2.31,2.43,3,3,0,0,0,1.73-.56l.42.78a4.08,4.08,0,0,1-2.3.72A3.32,3.32,0,0,1,61,119.94Zm4.85-.57c0-1.39-.62-2.15-1.71-2.15a2.13,2.13,0,0,0-2,2.15Z" transform="translate(0 0)"/><path class="cls-3" d="M71,119.94a3.37,3.37,0,0,1,3.34-3.66,2.94,2.94,0,0,1,2,.82l-.61.78a2,2,0,0,0-1.38-.62c-1.25,0-2.18,1.09-2.18,2.68s.88,2.66,2.15,2.66a2.5,2.5,0,0,0,1.63-.69l.51.78a3.35,3.35,0,0,1-2.24.89C72.38,123.58,71,122.24,71,119.94Z" transform="translate(0 0)"/><path class="cls-3" d="M77.19,119.94c0-2.32,1.52-3.66,3.22-3.66s3.22,1.34,3.22,3.66a3.24,3.24,0,1,1-6.44,0Zm5.22,0c0-1.59-.81-2.68-2-2.68s-2,1.09-2,2.68.81,2.66,2,2.66S82.41,121.53,82.41,119.94Z" transform="translate(0 0)"/><path class="cls-3" d="M85.46,116.46h1l.1,1h0a3.31,3.31,0,0,1,2.33-1.18c1.46,0,2.12,1,2.12,2.72v4.41H89.84v-4.26c0-1.29-.39-1.84-1.31-1.84a2.65,2.65,0,0,0-1.9,1.06v5H85.46Z" transform="translate(0 0)"/><path class="cls-3" d="M93.48,121.26v-3.85h-1v-.89l1.09-.06.14-1.95h1v1.95h1.88v1H94.66v3.87c0,.85.27,1.34,1.07,1.34a2.23,2.23,0,0,0,.8-.19l.22.89a4.23,4.23,0,0,1-1.29.26C94,123.58,93.48,122.64,93.48,121.26Z" transform="translate(0 0)"/><path class="cls-3" d="M97.38,121.6c0-1.51,1.31-2.27,4.27-2.59,0-.9-.3-1.76-1.44-1.76a3.81,3.81,0,0,0-2.07.75l-.46-.81a5.12,5.12,0,0,1,2.73-.91c1.7,0,2.41,1.13,2.41,2.86v4.27h-1l-.1-.83h0a3.67,3.67,0,0,1-2.29,1A1.89,1.89,0,0,1,97.38,121.6Zm4.27.11v-1.93c-2.33.28-3.12.85-3.12,1.74s.54,1.11,1.22,1.11A2.88,2.88,0,0,0,101.65,121.71Z" transform="translate(0 0)"/><path class="cls-3" d="M104.5,119.94a3.38,3.38,0,0,1,3.35-3.66,2.92,2.92,0,0,1,2,.82l-.6.78a2,2,0,0,0-1.38-.62c-1.26,0-2.18,1.09-2.18,2.68s.87,2.66,2.15,2.66a2.54,2.54,0,0,0,1.63-.69l.51.78a3.4,3.4,0,0,1-2.25.89C105.91,123.58,104.5,122.24,104.5,119.94Z" transform="translate(0 0)"/><path class="cls-3" d="M111.6,121.26v-3.85h-1v-.89l1.08-.06.15-1.95h1v1.95h1.88v1h-1.88v3.87c0,.85.27,1.34,1.07,1.34a2.13,2.13,0,0,0,.79-.19l.23.89a4.23,4.23,0,0,1-1.29.26C112.1,123.58,111.6,122.64,111.6,121.26Z" transform="translate(0 0)"/><path class="cls-3" d="M119,120.86v-4.4h1.17v4.25c0,1.29.39,1.85,1.31,1.85.71,0,1.21-.36,1.86-1.17v-4.93h1.18v7h-1l-.1-1.09h0a2.94,2.94,0,0,1-2.29,1.26C119.65,123.58,119,122.63,119,120.86Z" transform="translate(0 0)"/><path class="cls-3" d="M126.1,122.61l.58-.77a3.11,3.11,0,0,0,2,.82c.91,0,1.37-.49,1.37-1.08s-.83-1-1.59-1.32c-1-.35-2.08-.83-2.08-2s.89-2,2.4-2a3.5,3.5,0,0,1,2.16.79l-.56.75a2.65,2.65,0,0,0-1.59-.62c-.87,0-1.28.47-1.28,1s.76.91,1.55,1.2c1,.38,2.12.79,2.12,2.11,0,1.13-.9,2.07-2.54,2.07A4.13,4.13,0,0,1,126.1,122.61Z" transform="translate(0 0)"/><path class="cls-3" d="M134.72,116.46h1.21l1.32,3.94c.2.68.43,1.39.64,2h.05c.21-.66.44-1.37.64-2l1.32-3.94h1.15l-2.46,7h-1.36Z" transform="translate(0 0)"/><path class="cls-3" d="M142.18,114.27a.82.82,0,0,1,1.63,0,.82.82,0,0,1-1.63,0Zm.22,2.19h1.17v7H142.4Z" transform="translate(0 0)"/><path class="cls-3" d="M145.49,121.6c0-1.51,1.3-2.27,4.26-2.59,0-.9-.3-1.76-1.43-1.76a3.78,3.78,0,0,0-2.07.75l-.46-.81a5.09,5.09,0,0,1,2.73-.91c1.69,0,2.41,1.13,2.41,2.86v4.27h-1l-.1-.83h0a3.7,3.7,0,0,1-2.3,1A1.89,1.89,0,0,1,145.49,121.6Zm4.26.11v-1.93c-2.33.28-3.11.85-3.11,1.74s.53,1.11,1.21,1.11A2.85,2.85,0,0,0,149.75,121.71Z" transform="translate(0 0)"/><path class="cls-3" d="M155.47,119.94c0-2.26,1.52-3.66,3.12-3.66,1.77,0,2.77,1.28,2.77,3.27a4.13,4.13,0,0,1-.05.66h-4.68a2.3,2.3,0,0,0,2.31,2.43,3,3,0,0,0,1.73-.56l.42.78a4.08,4.08,0,0,1-2.3.72A3.32,3.32,0,0,1,155.47,119.94Zm4.85-.57c0-1.39-.62-2.15-1.71-2.15a2.13,2.13,0,0,0-2,2.15Z" transform="translate(0 0)"/><path class="cls-3" d="M162.64,119.37h3.28v.9h-3.28Z" transform="translate(0 0)"/><path class="cls-3" d="M167.67,116.46h1l.1,1h0a3.09,3.09,0,0,1,2.16-1.18,1.84,1.84,0,0,1,1.92,1.33,3.28,3.28,0,0,1,2.29-1.33c1.43,0,2.11,1,2.11,2.72v4.41h-1.17v-4.26c0-1.29-.41-1.84-1.3-1.84a2.58,2.58,0,0,0-1.74,1.06v5h-1.17v-4.26c0-1.29-.41-1.84-1.3-1.84a2.58,2.58,0,0,0-1.74,1.06v5h-1.17Z" transform="translate(0 0)"/><path class="cls-3" d="M179.09,121.6c0-1.51,1.31-2.27,4.27-2.59,0-.9-.3-1.76-1.44-1.76a3.81,3.81,0,0,0-2.07.75l-.46-.81a5.12,5.12,0,0,1,2.73-.91c1.7,0,2.41,1.13,2.41,2.86v4.27h-1l-.1-.83h0a3.67,3.67,0,0,1-2.29,1A1.89,1.89,0,0,1,179.09,121.6Zm4.27.11v-1.93c-2.33.28-3.12.85-3.12,1.74s.54,1.11,1.22,1.11A2.88,2.88,0,0,0,183.36,121.71Z" transform="translate(0 0)"/><path class="cls-3" d="M186.51,114.27a.82.82,0,0,1,1.63,0,.82.82,0,0,1-1.63,0Zm.22,2.19h1.17v7h-1.17Z" transform="translate(0 0)"/><path class="cls-3" d="M190.24,122v-8.79h1.18v8.88c0,.36.16.5.33.5a1,1,0,0,0,.26,0l.16.9a1.92,1.92,0,0,1-.68.11C190.61,123.58,190.24,123,190.24,122Z" transform="translate(0 0)"/><path class="cls-3" d="M193.65,122.69a.85.85,0,1,1,.85.89A.86.86,0,0,1,193.65,122.69Z" transform="translate(0 0)"/><path class="cls-3" d="M28.85,131.18h1.23l1,5.11c.18,1,.37,2,.55,3h.06c.2-1,.43-2,.66-3l1.3-5.11h1.08l1.3,5.11c.23,1,.45,2,.68,3h.06c.18-1,.35-2,.53-3l1-5.11h1.15l-1.94,9.39H36.05l-1.42-5.64c-.16-.74-.31-1.42-.45-2.14h-.06c-.15.72-.31,1.4-.47,2.14l-1.39,5.64H30.84Z" transform="translate(0 0)"/><path class="cls-3" d="M40.42,137.1a3.36,3.36,0,0,1,3.13-3.66c1.77,0,2.77,1.28,2.77,3.27a4.13,4.13,0,0,1,0,.66H41.59a2.3,2.3,0,0,0,2.31,2.43,3,3,0,0,0,1.72-.56l.43.78a4.08,4.08,0,0,1-2.3.72A3.33,3.33,0,0,1,40.42,137.1Zm4.86-.57c0-1.39-.62-2.15-1.71-2.15a2.13,2.13,0,0,0-2,2.15Z" transform="translate(0 0)"/><path class="cls-3" d="M50.46,138.76c0-1.51,1.31-2.27,4.27-2.59,0-.9-.3-1.76-1.43-1.76a3.81,3.81,0,0,0-2.08.75l-.46-.81a5.12,5.12,0,0,1,2.73-.91c1.7,0,2.42,1.13,2.42,2.86v4.27h-1l-.1-.83h0a3.72,3.72,0,0,1-2.3,1A1.89,1.89,0,0,1,50.46,138.76Zm4.27.11v-1.93c-2.33.28-3.12.85-3.12,1.74s.54,1.11,1.22,1.11A2.88,2.88,0,0,0,54.73,138.87Z" transform="translate(0 0)"/><path class="cls-3" d="M58.1,133.62h1l.1,1.26h0a2.39,2.39,0,0,1,2-1.44,1.55,1.55,0,0,1,.74.15l-.22,1a1.87,1.87,0,0,0-.68-.12c-.58,0-1.28.43-1.75,1.6v4.47H58.1Z" transform="translate(0 0)"/><path class="cls-3" d="M62.4,137.1a3.36,3.36,0,0,1,3.13-3.66c1.77,0,2.77,1.28,2.77,3.27a4.13,4.13,0,0,1,0,.66H63.56a2.32,2.32,0,0,0,2.31,2.43,3,3,0,0,0,1.73-.56L68,140a4,4,0,0,1-2.29.72A3.33,3.33,0,0,1,62.4,137.1Zm4.86-.57c0-1.39-.63-2.15-1.71-2.15a2.14,2.14,0,0,0-2,2.15Z" transform="translate(0 0)"/><path class="cls-3" d="M72.87,130.38h1.18v2.79l0,1.42a3.31,3.31,0,0,1,2.3-1.15c1.47,0,2.12.95,2.12,2.72v4.41H77.26v-4.26c0-1.29-.39-1.84-1.31-1.84a2.63,2.63,0,0,0-1.9,1.06v5H72.87Z" transform="translate(0 0)"/><path class="cls-3" d="M80.22,138.76c0-1.51,1.31-2.27,4.27-2.59,0-.9-.3-1.76-1.44-1.76a3.81,3.81,0,0,0-2.07.75l-.46-.81a5.12,5.12,0,0,1,2.73-.91c1.7,0,2.41,1.13,2.41,2.86v4.27h-1l-.1-.83h0a3.67,3.67,0,0,1-2.29,1A1.89,1.89,0,0,1,80.22,138.76Zm4.27.11v-1.93c-2.33.28-3.12.85-3.12,1.74s.54,1.11,1.22,1.11A2.88,2.88,0,0,0,84.49,138.87Z" transform="translate(0 0)"/><path class="cls-3" d="M87.86,133.62h1l.1.8h0a3.68,3.68,0,0,1,2.21-1c1.8,0,2.76,1.4,2.76,3.55,0,2.36-1.42,3.75-3,3.75a3.18,3.18,0,0,1-1.93-.81l0,1.22v2.35H87.86ZM92.72,137c0-1.54-.52-2.57-1.83-2.57a2.9,2.9,0,0,0-1.86.95V139a2.78,2.78,0,0,0,1.7.72C91.88,139.75,92.72,138.71,92.72,137Z" transform="translate(0 0)"/><path class="cls-3" d="M95.79,133.62h1l.1.8h0a3.68,3.68,0,0,1,2.22-1c1.8,0,2.76,1.4,2.76,3.55,0,2.36-1.43,3.75-3,3.75a3.18,3.18,0,0,1-1.93-.81l0,1.22v2.35H95.79Zm4.87,3.38c0-1.54-.52-2.57-1.83-2.57a2.9,2.9,0,0,0-1.86.95V139a2.75,2.75,0,0,0,1.69.72C99.81,139.75,100.66,138.71,100.66,137Z" transform="translate(0 0)"/><path class="cls-3" d="M103,143.42l.23-.94a1.67,1.67,0,0,0,.53.1c.78,0,1.28-.62,1.56-1.49l.16-.51-2.79-7h1.21l1.42,3.84c.22.61.45,1.32.68,2H106c.19-.63.39-1.34.58-2l1.24-3.84H109l-2.62,7.52c-.49,1.38-1.2,2.42-2.6,2.42A2.35,2.35,0,0,1,103,143.42Z" transform="translate(0 0)"/><path class="cls-3" d="M113.42,138.42v-3.84h-1v-.9l1.09-.06.14-2h1v2h1.89v1h-1.89v3.86c0,.85.28,1.34,1.08,1.34a2.18,2.18,0,0,0,.79-.19l.23.89a4.29,4.29,0,0,1-1.29.26C113.92,140.74,113.42,139.8,113.42,138.42Z" transform="translate(0 0)"/><path class="cls-3" d="M117.33,137.1c0-2.32,1.52-3.66,3.22-3.66s3.22,1.34,3.22,3.66a3.24,3.24,0,1,1-6.44,0Zm5.22,0c0-1.59-.81-2.68-2-2.68s-2,1.09-2,2.68.81,2.66,2,2.66S122.55,138.69,122.55,137.1Z" transform="translate(0 0)"/><path class="cls-3" d="M127.88,137.1c0-2.32,1.52-3.66,3.22-3.66s3.22,1.34,3.22,3.66a3.24,3.24,0,1,1-6.44,0Zm5.23,0c0-1.59-.81-2.68-2-2.68s-2,1.09-2,2.68.81,2.66,2,2.66S133.11,138.69,133.11,137.1Z" transform="translate(0 0)"/><path class="cls-3" d="M135.37,133.68l1-.06H143v1h-7.67Zm.94-1a2.05,2.05,0,0,1,2.17-2.35,3.16,3.16,0,0,1,1.27.26l-.25.9a2,2,0,0,0-.92-.2c-.69,0-1.09.5-1.09,1.42v7.84h-1.18Zm4.08-.18c0-1.41.64-2.31,2-2.31a3.14,3.14,0,0,1,1.15.24l-.25.9a1.78,1.78,0,0,0-.79-.18c-.65,0-1,.46-1,1.35v8h-1.18Z" transform="translate(0 0)"/><path class="cls-3" d="M143.71,137.1a3.36,3.36,0,0,1,3.13-3.66c1.77,0,2.77,1.28,2.77,3.27a3.16,3.16,0,0,1-.06.66h-4.68a2.32,2.32,0,0,0,2.31,2.43,3,3,0,0,0,1.73-.56l.42.78a4.07,4.07,0,0,1-2.29.72A3.33,3.33,0,0,1,143.71,137.1Zm4.86-.57c0-1.39-.63-2.15-1.71-2.15a2.14,2.14,0,0,0-2,2.15Z" transform="translate(0 0)"/><path class="cls-3" d="M151.32,133.62h1l.1,1.26h0a2.4,2.4,0,0,1,2-1.44,1.55,1.55,0,0,1,.74.15l-.22,1a1.87,1.87,0,0,0-.68-.12c-.58,0-1.28.43-1.75,1.6v4.47h-1.18Z" transform="translate(0 0)"/><path class="cls-3" d="M158.45,143.42l.23-.94a1.67,1.67,0,0,0,.53.1c.78,0,1.27-.62,1.56-1.49l.16-.51-2.79-7h1.21l1.42,3.84c.22.61.45,1.32.68,2h.06c.19-.63.39-1.34.58-2l1.24-3.84h1.15l-2.62,7.52c-.49,1.38-1.21,2.42-2.6,2.42A2.35,2.35,0,0,1,158.45,143.42Z" transform="translate(0 0)"/><path class="cls-3" d="M165.25,137.1c0-2.32,1.52-3.66,3.22-3.66s3.22,1.34,3.22,3.66a3.24,3.24,0,1,1-6.44,0Zm5.22,0c0-1.59-.81-2.68-2-2.68s-2,1.09-2,2.68.81,2.66,2,2.66S170.47,138.69,170.47,137.1Z" transform="translate(0 0)"/><path class="cls-3" d="M173.42,138v-4.4h1.18v4.25c0,1.29.39,1.85,1.31,1.85.71,0,1.2-.36,1.86-1.17v-4.93H179v6.95h-1l-.1-1.09h0a3,3,0,0,1-2.3,1.26C174.08,140.74,173.42,139.79,173.42,138Z" transform="translate(0 0)"/><path class="cls-3" d="M183.72,138.76c0-1.51,1.31-2.27,4.27-2.59,0-.9-.3-1.76-1.43-1.76a3.81,3.81,0,0,0-2.08.75l-.46-.81a5.12,5.12,0,0,1,2.73-.91c1.7,0,2.42,1.13,2.42,2.86v4.27h-1l-.1-.83h0a3.7,3.7,0,0,1-2.3,1A1.89,1.89,0,0,1,183.72,138.76Zm4.27.11v-1.93c-2.33.28-3.11.85-3.11,1.74s.53,1.11,1.21,1.11A2.85,2.85,0,0,0,188,138.87Z" transform="translate(0 0)"/><path class="cls-3" d="M193.73,137.1c0-2.25,1.42-3.66,3-3.66a2.86,2.86,0,0,1,2,.81l-.05-1.19v-2.68h1.18v10.19h-1l-.1-.82h0a3.07,3.07,0,0,1-2.11,1C194.85,140.74,193.73,139.42,193.73,137.1Zm4.9,1.7v-3.64a2.45,2.45,0,0,0-1.69-.73c-1.12,0-2,1.08-2,2.66s.69,2.66,1.91,2.66A2.42,2.42,0,0,0,198.63,138.8Z" transform="translate(0 0)"/><path class="cls-3" d="M201.73,138.76c0-1.51,1.3-2.27,4.27-2.59,0-.9-.3-1.76-1.44-1.76a3.78,3.78,0,0,0-2.07.75l-.46-.81a5.09,5.09,0,0,1,2.73-.91c1.69,0,2.41,1.13,2.41,2.86v4.27h-1l-.1-.83h0a3.68,3.68,0,0,1-2.3,1A1.89,1.89,0,0,1,201.73,138.76Zm4.27.11v-1.93c-2.33.28-3.12.85-3.12,1.74s.53,1.11,1.22,1.11A2.9,2.9,0,0,0,206,138.87Z" transform="translate(0 0)"/><path class="cls-3" d="M209.15,131.43a.81.81,0,0,1,1.62,0,.81.81,0,0,1-1.62,0Zm.21,2.19h1.18v6.95h-1.18Z" transform="translate(0 0)"/><path class="cls-3" d="M212.88,139.17v-8.79h1.18v8.88c0,.36.15.5.33.5a.94.94,0,0,0,.25,0l.16.9a1.85,1.85,0,0,1-.67.11C213.24,140.74,212.88,140.17,212.88,139.17Z" transform="translate(0 0)"/><path class="cls-3" d="M215.83,143.42l.23-.94a1.72,1.72,0,0,0,.53.1c.79,0,1.28-.62,1.57-1.49l.16-.51-2.79-7h1.21l1.42,3.84c.22.61.45,1.32.67,2h.06c.2-.63.4-1.34.59-2l1.24-3.84h1.15l-2.62,7.52c-.49,1.38-1.21,2.42-2.6,2.42A2.41,2.41,0,0,1,215.83,143.42Z" transform="translate(0 0)"/><path class="cls-3" d="M222.21,142.3a1.92,1.92,0,0,0,1.29-1.77l-.13-1.05.58.85a.73.73,0,0,1-.6.25.8.8,0,0,1-.85-.82.82.82,0,0,1,.87-.82c.63,0,1,.52,1,1.38A2.82,2.82,0,0,1,222.5,143Z" transform="translate(0 0)"/><path class="cls-3" d="M228.3,133.62h1.2l1,4c.15.66.28,1.29.41,1.94H231c.15-.65.3-1.29.47-1.94l1.08-4h1.14l1.09,4c.17.66.32,1.29.48,1.94h.06c.15-.65.28-1.28.43-1.94l1-4h1.12L236,140.57h-1.44l-1-3.74c-.17-.66-.3-1.3-.47-2h-.05c-.16.7-.29,1.36-.48,2l-1,3.72h-1.37Z" transform="translate(0 0)"/><path class="cls-3" d="M238.82,137.1c0-2.26,1.52-3.66,3.12-3.66,1.78,0,2.78,1.28,2.78,3.27a3.16,3.16,0,0,1-.06.66H240a2.32,2.32,0,0,0,2.31,2.43,3,3,0,0,0,1.73-.56l.42.78a4.07,4.07,0,0,1-2.29.72A3.33,3.33,0,0,1,238.82,137.1Zm4.86-.57c0-1.39-.63-2.15-1.71-2.15a2.14,2.14,0,0,0-2,2.15Z" transform="translate(0 0)"/><path class="cls-3" d="M245.91,137.1a3.36,3.36,0,0,1,3.13-3.66c1.77,0,2.77,1.28,2.77,3.27a4.13,4.13,0,0,1-.05.66h-4.68a2.3,2.3,0,0,0,2.3,2.43,3,3,0,0,0,1.73-.56l.42.78a4,4,0,0,1-2.29.72A3.33,3.33,0,0,1,245.91,137.1Zm4.86-.57c0-1.39-.62-2.15-1.71-2.15a2.14,2.14,0,0,0-2,2.15Z" transform="translate(0 0)"/><path class="cls-3" d="M253.52,130.38h1.16v6.9h0l3-3.66H259l-2.33,2.79,2.63,4.16H258l-2-3.34-1.3,1.51v1.83h-1.16Z" transform="translate(0 0)"/><path class="cls-3" d="M260.6,139.17v-8.79h1.18v8.88c0,.36.15.5.32.5a1,1,0,0,0,.26,0l.16.9a1.92,1.92,0,0,1-.68.11C261,140.74,260.6,140.17,260.6,139.17Z" transform="translate(0 0)"/><path class="cls-3" d="M263.55,143.42l.23-.94a1.72,1.72,0,0,0,.53.1c.78,0,1.28-.62,1.57-1.49l.15-.51-2.78-7h1.21l1.42,3.84.67,2h.06c.2-.63.4-1.34.58-2l1.24-3.84h1.16L267,141.14c-.49,1.38-1.21,2.42-2.6,2.42A2.37,2.37,0,0,1,263.55,143.42Z" transform="translate(0 0)"/><path class="cls-3" d="M273.27,137.1c0-2.32,1.52-3.66,3.22-3.66s3.22,1.34,3.22,3.66a3.24,3.24,0,1,1-6.44,0Zm5.22,0c0-1.59-.8-2.68-2-2.68s-2,1.09-2,2.68.81,2.66,2,2.66S278.49,138.69,278.49,137.1Z" transform="translate(0 0)"/><path class="cls-3" d="M281.54,133.62h1l.1,1.26h0a2.39,2.39,0,0,1,2-1.44,1.5,1.5,0,0,1,.74.15l-.22,1a1.81,1.81,0,0,0-.67-.12c-.59,0-1.29.43-1.76,1.6v4.47h-1.17Z" transform="translate(0 0)"/><path class="cls-3" d="M29.7,150.78h1l.1,1h0A3.13,3.13,0,0,1,33,150.6a1.82,1.82,0,0,1,1.92,1.33,3.3,3.3,0,0,1,2.29-1.33c1.43,0,2.12,1,2.12,2.72v4.41H38.12v-4.26c0-1.29-.41-1.84-1.29-1.84a2.54,2.54,0,0,0-1.74,1.06v5H33.91v-4.26c0-1.29-.41-1.84-1.29-1.84a2.58,2.58,0,0,0-1.74,1.06v5H29.7Z" transform="translate(0 0)"/><path class="cls-3" d="M41,154.26c0-2.32,1.52-3.66,3.22-3.66s3.22,1.34,3.22,3.66a3.24,3.24,0,1,1-6.44,0Zm5.22,0c0-1.59-.81-2.68-2-2.68s-2,1.09-2,2.68.81,2.66,2,2.66S46.26,155.85,46.26,154.26Z" transform="translate(0 0)"/><path class="cls-3" d="M49.31,150.78h1l.1,1h0a3.31,3.31,0,0,1,2.33-1.18c1.46,0,2.12,1,2.12,2.72v4.41H53.69v-4.26c0-1.29-.39-1.84-1.31-1.84a2.65,2.65,0,0,0-1.9,1.06v5H49.31Z" transform="translate(0 0)"/><path class="cls-3" d="M57.33,155.58v-3.84h-1v-.9l1.09-.06.14-1.95h1v1.95h1.88v1H58.51v3.86c0,.85.27,1.34,1.07,1.34a2.23,2.23,0,0,0,.8-.19l.22.89a4.23,4.23,0,0,1-1.29.26C57.83,157.9,57.33,157,57.33,155.58Z" transform="translate(0 0)"/><path class="cls-3" d="M62,147.54h1.18v2.79l0,1.42a3.31,3.31,0,0,1,2.3-1.15c1.47,0,2.12,1,2.12,2.72v4.41H66.35v-4.26c0-1.29-.39-1.84-1.31-1.84a2.63,2.63,0,0,0-1.9,1.06v5H62Z" transform="translate(0 0)"/><path class="cls-3" d="M69.74,156.33v-8.79h1.18v8.88c0,.36.15.5.32.5a1,1,0,0,0,.26,0l.16.9a1.92,1.92,0,0,1-.68.11C70.1,157.9,69.74,157.33,69.74,156.33Z" transform="translate(0 0)"/><path class="cls-3" d="M72.69,160.58l.23-.94a1.72,1.72,0,0,0,.53.1c.78,0,1.28-.62,1.57-1.49l.15-.51-2.78-7H73.6L75,154.62l.67,2h.06c.2-.63.4-1.34.58-2l1.24-3.84h1.16l-2.62,7.52c-.49,1.38-1.21,2.42-2.6,2.42A2.37,2.37,0,0,1,72.69,160.58Z" transform="translate(0 0)"/><path class="cls-3" d="M82.93,150.78h1l.1.8h0a3.66,3.66,0,0,1,2.21-1c1.8,0,2.76,1.4,2.76,3.55,0,2.36-1.43,3.75-3,3.75a3.18,3.18,0,0,1-1.93-.81l0,1.22v2.35H82.93Zm4.86,3.38c0-1.54-.52-2.57-1.83-2.57a2.9,2.9,0,0,0-1.86.95v3.65a2.75,2.75,0,0,0,1.69.72C86.94,156.91,87.79,155.87,87.79,154.16Z" transform="translate(0 0)"/><path class="cls-3" d="M90.8,156.33v-8.79H92v8.88c0,.36.16.5.33.5a1,1,0,0,0,.26,0l.16.9a1.92,1.92,0,0,1-.68.11C91.17,157.9,90.8,157.33,90.8,156.33Z" transform="translate(0 0)"/><path class="cls-3" d="M94,155.92c0-1.51,1.31-2.27,4.27-2.59,0-.9-.3-1.76-1.44-1.76a3.81,3.81,0,0,0-2.07.75l-.46-.81a5.12,5.12,0,0,1,2.73-.91c1.7,0,2.41,1.13,2.41,2.86v4.27h-1l-.1-.83h0a3.67,3.67,0,0,1-2.29,1A1.89,1.89,0,0,1,94,155.92Zm4.27.11V154.1c-2.33.28-3.12.85-3.12,1.74s.54,1.11,1.22,1.11A2.88,2.88,0,0,0,98.29,156Z" transform="translate(0 0)"/><path class="cls-3" d="M101.66,150.78h1l.1,1h0a3.33,3.33,0,0,1,2.33-1.18c1.46,0,2.12,1,2.12,2.72v4.41H106v-4.26c0-1.29-.39-1.84-1.31-1.84a2.65,2.65,0,0,0-1.9,1.06v5h-1.17Z" transform="translate(0 0)"/><path class="cls-3" d="M112.55,155.58v-3.84h-1v-.9l1.09-.06.14-1.95h1v1.95h1.88v1h-1.88v3.86c0,.85.28,1.34,1.08,1.34a2.23,2.23,0,0,0,.79-.19l.23.89a4.29,4.29,0,0,1-1.29.26C113.05,157.9,112.55,157,112.55,155.58Z" transform="translate(0 0)"/><path class="cls-3" d="M117.17,147.54h1.18v2.79l0,1.42a3.33,3.33,0,0,1,2.3-1.15c1.47,0,2.13,1,2.13,2.72v4.41h-1.18v-4.26c0-1.29-.39-1.84-1.31-1.84a2.65,2.65,0,0,0-1.9,1.06v5h-1.18Z" transform="translate(0 0)"/><path class="cls-3" d="M124.52,155.92c0-1.51,1.31-2.27,4.27-2.59,0-.9-.3-1.76-1.43-1.76a3.81,3.81,0,0,0-2.08.75l-.46-.81a5.12,5.12,0,0,1,2.73-.91c1.7,0,2.42,1.13,2.42,2.86v4.27h-1l-.1-.83h0a3.72,3.72,0,0,1-2.3,1A1.89,1.89,0,0,1,124.52,155.92Zm4.27.11V154.1c-2.33.28-3.12.85-3.12,1.74s.54,1.11,1.22,1.11A2.88,2.88,0,0,0,128.79,156Z" transform="translate(0 0)"/><path class="cls-3" d="M132.17,155.58v-3.84h-1v-.9l1.09-.06.14-1.95h1v1.95h1.88v1h-1.88v3.86c0,.85.28,1.34,1.08,1.34a2.23,2.23,0,0,0,.79-.19l.23.89a4.29,4.29,0,0,1-1.29.26C132.67,157.9,132.17,157,132.17,155.58Z" transform="translate(0 0)"/><path class="cls-3" d="M138.9,150.84l1-.06h2.6v1h-3.6Zm.95-1.16c0-1.41.64-2.31,2-2.31a3.15,3.15,0,0,1,1.16.24l-.25.9a1.81,1.81,0,0,0-.79-.18c-.65,0-1,.46-1,1.35v8h-1.17Z" transform="translate(0 0)"/><path class="cls-3" d="M143.61,148.59a.82.82,0,0,1,1.63,0,.82.82,0,0,1-1.63,0Zm.22,2.19H145v6.95h-1.17Z" transform="translate(0 0)"/><path class="cls-3" d="M147.55,155.58v-3.84h-1v-.9l1.08-.06.15-1.95h1v1.95h1.88v1h-1.88v3.86c0,.85.27,1.34,1.07,1.34a2.13,2.13,0,0,0,.79-.19l.23.89a4.23,4.23,0,0,1-1.29.26C148.05,157.9,147.55,157,147.55,155.58Z" transform="translate(0 0)"/><path class="cls-3" d="M151.27,156.93l.58-.77a3.09,3.09,0,0,0,2.05.82c.91,0,1.36-.49,1.36-1.08s-.82-1-1.59-1.32c-1-.35-2.07-.83-2.07-2s.89-2,2.4-2a3.52,3.52,0,0,1,2.16.79l-.56.75a2.65,2.65,0,0,0-1.59-.62c-.87,0-1.28.47-1.28,1s.76.91,1.54,1.2c1,.38,2.12.79,2.12,2.11,0,1.13-.89,2.07-2.53,2.07A4.13,4.13,0,0,1,151.27,156.93Z" transform="translate(0 0)"/><path class="cls-3" d="M160.19,160.58l.23-.94a1.72,1.72,0,0,0,.53.1c.78,0,1.28-.62,1.57-1.49l.16-.51-2.79-7h1.21l1.42,3.84c.22.61.45,1.32.67,2h.06c.2-.63.4-1.34.59-2l1.23-3.84h1.16l-2.62,7.52c-.49,1.38-1.21,2.42-2.6,2.42A2.41,2.41,0,0,1,160.19,160.58Z" transform="translate(0 0)"/><path class="cls-3" d="M167,154.26c0-2.32,1.52-3.66,3.22-3.66s3.22,1.34,3.22,3.66a3.24,3.24,0,1,1-6.44,0Zm5.23,0c0-1.59-.81-2.68-2-2.68s-2,1.09-2,2.68.81,2.66,2,2.66S172.22,155.85,172.22,154.26Z" transform="translate(0 0)"/><path class="cls-3" d="M175.17,155.18v-4.4h1.17V155c0,1.29.39,1.85,1.31,1.85.71,0,1.21-.36,1.86-1.17v-4.93h1.18v6.95h-1l-.1-1.09h0a2.94,2.94,0,0,1-2.29,1.26C175.82,157.9,175.17,157,175.17,155.18Z" transform="translate(0 0)"/><path class="cls-3" d="M183,150.78h1l.1,1.26h0a2.39,2.39,0,0,1,2-1.44,1.55,1.55,0,0,1,.74.15l-.22,1a1.87,1.87,0,0,0-.68-.12c-.58,0-1.28.43-1.75,1.6v4.47H183Z" transform="translate(0 0)"/><path class="cls-3" d="M190.86,150.78h1l.1,1h0a3.33,3.33,0,0,1,2.33-1.18c1.47,0,2.12,1,2.12,2.72v4.41h-1.17v-4.26c0-1.29-.39-1.84-1.31-1.84a2.63,2.63,0,0,0-1.9,1.06v5h-1.18Z" transform="translate(0 0)"/><path class="cls-3" d="M198.17,154.26c0-2.26,1.52-3.66,3.12-3.66,1.77,0,2.77,1.28,2.77,3.27a4.13,4.13,0,0,1-.05.66h-4.68a2.3,2.3,0,0,0,2.31,2.43,3,3,0,0,0,1.73-.55l.42.77a4.08,4.08,0,0,1-2.3.72A3.32,3.32,0,0,1,198.17,154.26Zm4.85-.57c0-1.39-.62-2.15-1.71-2.15a2.14,2.14,0,0,0-2,2.15Z" transform="translate(0 0)"/><path class="cls-3" d="M205.26,154.26c0-2.26,1.52-3.66,3.12-3.66,1.78,0,2.78,1.28,2.78,3.27a3.16,3.16,0,0,1-.06.66h-4.68a2.32,2.32,0,0,0,2.31,2.43,3,3,0,0,0,1.73-.55l.42.77a4.07,4.07,0,0,1-2.29.72A3.32,3.32,0,0,1,205.26,154.26Zm4.86-.57c0-1.39-.63-2.15-1.72-2.15a2.14,2.14,0,0,0-2,2.15Z" transform="translate(0 0)"/><path class="cls-3" d="M212.37,154.26c0-2.25,1.43-3.66,3-3.66a2.86,2.86,0,0,1,2,.81l-.05-1.19v-2.68h1.17v10.19h-1l-.1-.82h0a3.07,3.07,0,0,1-2.1,1C213.5,157.9,212.37,156.58,212.37,154.26Zm4.91,1.7v-3.64a2.45,2.45,0,0,0-1.7-.73c-1.11,0-2,1.08-2,2.66s.69,2.66,1.91,2.66A2.42,2.42,0,0,0,217.28,156Z" transform="translate(0 0)"/><path class="cls-3" d="M220,156.93l.58-.77a3.13,3.13,0,0,0,2.06.82c.91,0,1.36-.49,1.36-1.08s-.82-1-1.59-1.32c-1-.35-2.07-.83-2.07-2s.89-2,2.4-2a3.52,3.52,0,0,1,2.16.79l-.56.75a2.65,2.65,0,0,0-1.59-.62c-.87,0-1.28.47-1.28,1s.76.91,1.54,1.2c1,.38,2.12.79,2.12,2.11,0,1.13-.89,2.07-2.53,2.07A4.18,4.18,0,0,1,220,156.93Z" transform="translate(0 0)"/><path class="cls-3" d="M226.55,157a.86.86,0,1,1,.86.89A.87.87,0,0,1,226.55,157Z" transform="translate(0 0)"/></svg>