<svg id="Ebene_1" data-name="Ebene 1" xmlns="http://www.w3.org/2000/svg" viewBox="0 0 328.99 179.01"><defs><style>.cls-1{fill:#6c648b;}.cls-2{font-size:28px;font-family:SansBlack;}.cls-2,.cls-3{fill:#fff;}</style></defs><title>PICK_00-template</title><rect class="cls-1" width="328.99" height="179.01"/><text class="cls-2" transform="translate(28.53 64.46)">B.A.D‘S<tspan x="0" y="33.6">PICK OF THE WEEK</tspan></text><path class="cls-3" d="M29.46,139.85a.85.85,0,1,1,.85.89A.86.86,0,0,1,29.46,139.85Z" transform="translate(0 0)"/><path class="cls-3" d="M33,139.85a.85.85,0,1,1,.85.89A.86.86,0,0,1,33,139.85Z" transform="translate(0 0)"/><path class="cls-3" d="M36.58,139.85a.85.85,0,1,1,.85.89A.86.86,0,0,1,36.58,139.85Z" transform="translate(0 0)"/><path class="cls-3" d="M43.45,138.42v-3.84h-1v-.9l1.09-.06.14-2h1v2h1.89v1H44.62v3.86c0,.85.28,1.34,1.08,1.34a2.18,2.18,0,0,0,.79-.19l.23.89a4.29,4.29,0,0,1-1.29.26C44,140.74,43.45,139.8,43.45,138.42Z" transform="translate(0 0)"/><path class="cls-3" d="M47.36,137.1c0-2.32,1.52-3.66,3.22-3.66s3.22,1.34,3.22,3.66a3.24,3.24,0,1,1-6.44,0Zm5.22,0c0-1.59-.81-2.68-2-2.68s-2,1.09-2,2.68.81,2.66,2,2.66S52.58,138.69,52.58,137.1Z" transform="translate(0 0)"/><path class="cls-3" d="M59.52,139.85h0l-.11.72h-.94V130.38H59.6v2.79l0,1.24a3.49,3.49,0,0,1,2.18-1c1.79,0,2.76,1.4,2.76,3.54,0,2.37-1.42,3.76-3,3.76A3.07,3.07,0,0,1,59.52,139.85ZM63.29,137c0-1.54-.52-2.57-1.83-2.57a2.85,2.85,0,0,0-1.86.95V139a2.75,2.75,0,0,0,1.7.72C62.45,139.75,63.29,138.71,63.29,137Z" transform="translate(0 0)"/><path class="cls-3" d="M65.82,137.1c0-2.26,1.52-3.66,3.12-3.66,1.78,0,2.78,1.28,2.78,3.27a3.16,3.16,0,0,1-.06.66H67a2.32,2.32,0,0,0,2.31,2.43,3,3,0,0,0,1.73-.56l.42.78a4.07,4.07,0,0,1-2.29.72A3.32,3.32,0,0,1,65.82,137.1Zm4.86-.57c0-1.39-.63-2.15-1.71-2.15a2.14,2.14,0,0,0-2,2.15Z" transform="translate(0 0)"/><path class="cls-3" d="M75.79,137.1c0-2.25,1.43-3.66,3-3.66a2.86,2.86,0,0,1,2,.81l0-1.19v-2.68h1.17v10.19h-1l-.1-.82h0a3.07,3.07,0,0,1-2.1,1C76.92,140.74,75.79,139.42,75.79,137.1Zm4.91,1.7v-3.64a2.45,2.45,0,0,0-1.7-.73c-1.11,0-2,1.08-2,2.66s.69,2.66,1.91,2.66A2.42,2.42,0,0,0,80.7,138.8Z" transform="translate(0 0)"/><path class="cls-3" d="M84,131.43a.81.81,0,1,1,.81.76A.77.77,0,0,1,84,131.43Zm.22,2.19H85.4v6.95H84.23Z" transform="translate(0 0)"/><path class="cls-3" d="M87,139.77l.58-.77a3.13,3.13,0,0,0,2,.82c.92,0,1.37-.49,1.37-1.08s-.82-1-1.59-1.32c-1-.35-2.07-.83-2.07-2s.89-2,2.4-2a3.52,3.52,0,0,1,2.16.79l-.57.75a2.64,2.64,0,0,0-1.58-.62c-.88,0-1.28.47-1.28,1s.75.91,1.54,1.2c1,.38,2.12.79,2.12,2.11,0,1.13-.89,2.07-2.53,2.07A4.18,4.18,0,0,1,87,139.77Z" transform="translate(0 0)"/><path class="cls-3" d="M93.73,133.62h1l.1.8h0a3.68,3.68,0,0,1,2.22-1c1.8,0,2.76,1.4,2.76,3.55,0,2.36-1.43,3.75-3,3.75a3.18,3.18,0,0,1-1.93-.81l0,1.22v2.35H93.73ZM98.6,137c0-1.54-.52-2.57-1.83-2.57a2.9,2.9,0,0,0-1.86.95V139a2.75,2.75,0,0,0,1.69.72C97.75,139.75,98.6,138.71,98.6,137Z" transform="translate(0 0)"/><path class="cls-3" d="M101.61,139.17v-8.79h1.18v8.88c0,.36.16.5.33.5a1,1,0,0,0,.26,0l.16.9a1.92,1.92,0,0,1-.68.11C102,140.74,101.61,140.17,101.61,139.17Z" transform="translate(0 0)"/><path class="cls-3" d="M104.83,138.76c0-1.51,1.31-2.27,4.27-2.59,0-.9-.3-1.76-1.44-1.76a3.81,3.81,0,0,0-2.07.75l-.46-.81a5.12,5.12,0,0,1,2.73-.91c1.7,0,2.41,1.13,2.41,2.86v4.27h-1l-.1-.83h0a3.67,3.67,0,0,1-2.29,1A1.89,1.89,0,0,1,104.83,138.76Zm4.27.11v-1.93c-2.33.28-3.12.85-3.12,1.74s.54,1.11,1.22,1.11A2.88,2.88,0,0,0,109.1,138.87Z" transform="translate(0 0)"/><path class="cls-3" d="M111.77,143.42l.23-.94a1.72,1.72,0,0,0,.53.1c.78,0,1.28-.62,1.57-1.49l.16-.51-2.79-7h1.21l1.42,3.84.67,2h.06c.2-.63.4-1.34.59-2l1.23-3.84h1.16l-2.62,7.52c-.49,1.38-1.21,2.42-2.6,2.42A2.37,2.37,0,0,1,111.77,143.42Z" transform="translate(0 0)"/><path class="cls-3" d="M118.57,137.1a3.36,3.36,0,0,1,3.13-3.66c1.77,0,2.77,1.28,2.77,3.27a4.13,4.13,0,0,1,0,.66h-4.69A2.32,2.32,0,0,0,122,139.8a3,3,0,0,0,1.73-.56l.42.78a4.07,4.07,0,0,1-2.29.72A3.33,3.33,0,0,1,118.57,137.1Zm4.86-.57c0-1.39-.63-2.15-1.71-2.15a2.14,2.14,0,0,0-2,2.15Z" transform="translate(0 0)"/><path class="cls-3" d="M125.69,137.1c0-2.25,1.42-3.66,3-3.66a2.86,2.86,0,0,1,1.95.81l0-1.19v-2.68h1.18v10.19h-1l-.1-.82h0a3.07,3.07,0,0,1-2.11,1C126.81,140.74,125.69,139.42,125.69,137.1Zm4.9,1.7v-3.64a2.45,2.45,0,0,0-1.69-.73c-1.11,0-2,1.08-2,2.66s.69,2.66,1.91,2.66A2.42,2.42,0,0,0,130.59,138.8Z" transform="translate(0 0)"/><path class="cls-3" d="M136.46,137.1c0-2.32,1.52-3.66,3.22-3.66s3.22,1.34,3.22,3.66a3.24,3.24,0,1,1-6.44,0Zm5.23,0c0-1.59-.81-2.68-2-2.68s-2,1.09-2,2.68.81,2.66,2,2.66S141.69,138.69,141.69,137.1Z" transform="translate(0 0)"/><path class="cls-3" d="M144.73,133.62h1l.1,1h0a3.33,3.33,0,0,1,2.33-1.18c1.46,0,2.12.95,2.12,2.72v4.41h-1.17v-4.26c0-1.29-.4-1.84-1.32-1.84a2.65,2.65,0,0,0-1.9,1.06v5h-1.17Z" transform="translate(0 0)"/><path class="cls-3" d="M155.62,138.42v-3.84h-1v-.9l1.09-.06.14-2h1v2h1.89v1h-1.89v3.86c0,.85.28,1.34,1.08,1.34a2.23,2.23,0,0,0,.79-.19l.23.89a4.29,4.29,0,0,1-1.29.26C156.12,140.74,155.62,139.8,155.62,138.42Z" transform="translate(0 0)"/><path class="cls-3" d="M160.24,130.38h1.18v2.79l0,1.42a3.33,3.33,0,0,1,2.31-1.15c1.46,0,2.12.95,2.12,2.72v4.41h-1.18v-4.26c0-1.29-.39-1.84-1.31-1.84a2.65,2.65,0,0,0-1.9,1.06v5h-1.18Z" transform="translate(0 0)"/><path class="cls-3" d="M167.51,137.1c0-2.26,1.52-3.66,3.12-3.66,1.77,0,2.77,1.28,2.77,3.27a4.13,4.13,0,0,1-.05.66h-4.68A2.3,2.3,0,0,0,171,139.8a3,3,0,0,0,1.73-.56l.42.78a4.08,4.08,0,0,1-2.3.72A3.32,3.32,0,0,1,167.51,137.1Zm4.86-.57c0-1.39-.63-2.15-1.72-2.15a2.14,2.14,0,0,0-2,2.15Z" transform="translate(0 0)"/><path class="cls-3" d="M178.09,131.18h2.78c1.91,0,3.23.65,3.23,2.3a2.05,2.05,0,0,1-1.37,2v.06a2.16,2.16,0,0,1,1.91,2.24c0,1.84-1.46,2.75-3.56,2.75h-3Zm2.58,4c1.6,0,2.26-.59,2.26-1.54s-.75-1.51-2.21-1.51h-1.44v3.05Zm.24,4.44c1.61,0,2.55-.58,2.55-1.84s-.91-1.69-2.55-1.69h-1.63v3.53Z" transform="translate(0 0)"/><path class="cls-3" d="M186.14,139.85a.85.85,0,1,1,1.7,0,.85.85,0,1,1-1.7,0Z" transform="translate(0 0)"/><path class="cls-3" d="M192,131.18h1.35l3.18,9.39h-1.27l-1.64-5.24c-.33-1.05-.63-2.08-.93-3.17h-.06c-.29,1.09-.59,2.12-.93,3.17L190,140.57h-1.21Zm-1.5,5.57h4.32v1h-4.32Z" transform="translate(0 0)"/><path class="cls-3" d="M197.48,139.85a.85.85,0,1,1,1.7,0,.85.85,0,1,1-1.7,0Z" transform="translate(0 0)"/><path class="cls-3" d="M201.39,131.18h2.35c2.89,0,4.43,1.68,4.43,4.66s-1.54,4.73-4.38,4.73h-2.4Zm2.26,8.41c2.2,0,3.29-1.38,3.29-3.75s-1.09-3.68-3.29-3.68h-1.06v7.43Z" transform="translate(0 0)"/><path class="cls-3" d="M212.19,133.68l1-.06h2.59v1h-3.59Zm.94-1.16c0-1.41.65-2.31,2-2.31a3.09,3.09,0,0,1,1.15.24l-.25.9a1.77,1.77,0,0,0-.78-.18c-.66,0-1,.46-1,1.35v8h-1.18Z" transform="translate(0 0)"/><path class="cls-3" d="M217.11,133.62h1l.1,1.26h0a2.42,2.42,0,0,1,2-1.44,1.53,1.53,0,0,1,.74.15l-.22,1a1.81,1.81,0,0,0-.67-.12c-.59,0-1.29.43-1.76,1.6v4.47h-1.18Z" transform="translate(0 0)"/><path class="cls-3" d="M221.42,137.1c0-2.32,1.51-3.66,3.22-3.66s3.22,1.34,3.22,3.66a3.24,3.24,0,1,1-6.44,0Zm5.22,0c0-1.59-.81-2.68-2-2.68s-2,1.09-2,2.68.81,2.66,2,2.66S226.64,138.69,226.64,137.1Z" transform="translate(0 0)"/><path class="cls-3" d="M229.68,133.62h1l.1,1h0a3.35,3.35,0,0,1,2.33-1.18c1.47,0,2.13.95,2.13,2.72v4.41h-1.18v-4.26c0-1.29-.39-1.84-1.31-1.84a2.65,2.65,0,0,0-1.9,1.06v5h-1.18Z" transform="translate(0 0)"/><path class="cls-3" d="M237.71,138.42v-3.84h-1v-.9l1.08-.06.15-2h1v2h1.88v1h-1.88v3.86c0,.85.27,1.34,1.07,1.34a2.13,2.13,0,0,0,.79-.19l.23.89a4.23,4.23,0,0,1-1.29.26C238.21,140.74,237.71,139.8,237.71,138.42Z" transform="translate(0 0)"/><path class="cls-3" d="M245.2,133.62h1l.1.8h0a3.68,3.68,0,0,1,2.21-1c1.8,0,2.76,1.4,2.76,3.55,0,2.36-1.42,3.75-3,3.75a3.18,3.18,0,0,1-1.93-.81l0,1.22v2.35H245.2Zm4.86,3.38c0-1.54-.52-2.57-1.83-2.57a2.85,2.85,0,0,0-1.85.95V139a2.73,2.73,0,0,0,1.69.72C249.22,139.75,250.06,138.71,250.06,137Z" transform="translate(0 0)"/><path class="cls-3" d="M252.51,138.76c0-1.51,1.3-2.27,4.26-2.59,0-.9-.3-1.76-1.43-1.76a3.78,3.78,0,0,0-2.07.75l-.46-.81a5.09,5.09,0,0,1,2.73-.91c1.69,0,2.41,1.13,2.41,2.86v4.27h-1l-.1-.83h0a3.7,3.7,0,0,1-2.3,1A1.89,1.89,0,0,1,252.51,138.76Zm4.26.11v-1.93c-2.33.28-3.11.85-3.11,1.74s.53,1.11,1.22,1.11A2.85,2.85,0,0,0,256.77,138.87Z" transform="translate(0 0)"/><path class="cls-3" d="M259.62,141.9a2,2,0,0,1,1-1.57v-.06a1.28,1.28,0,0,1-.63-1.14,1.69,1.69,0,0,1,.77-1.29v-.05a2.42,2.42,0,0,1-.9-1.87,2.47,2.47,0,0,1,2.61-2.48,2.76,2.76,0,0,1,1,.18h2.42v.9h-1.43A2,2,0,0,1,265,136a2.37,2.37,0,0,1-2.54,2.41,2.54,2.54,0,0,1-1-.23,1,1,0,0,0-.44.82c0,.44.28.75,1.22.75h1.35c1.61,0,2.43.51,2.43,1.66s-1.37,2.4-3.52,2.4C260.79,143.76,259.62,143.1,259.62,141.9Zm5.23-.36c0-.65-.48-.87-1.4-.87h-1.2a3.7,3.7,0,0,1-.9-.1,1.44,1.44,0,0,0-.71,1.17c0,.74.76,1.21,2,1.21S264.85,142.26,264.85,141.54Zm-.89-5.62a1.48,1.48,0,1,0-2.95,0,1.48,1.48,0,1,0,2.95,0Z" transform="translate(0 0)"/><path class="cls-3" d="M266.63,137.1a3.36,3.36,0,0,1,3.13-3.66c1.77,0,2.77,1.28,2.77,3.27a4.13,4.13,0,0,1,0,.66H267.8a2.3,2.3,0,0,0,2.3,2.43,3,3,0,0,0,1.73-.56l.43.78a4.08,4.08,0,0,1-2.3.72A3.33,3.33,0,0,1,266.63,137.1Zm4.86-.57c0-1.39-.62-2.15-1.71-2.15a2.13,2.13,0,0,0-2,2.15Z" transform="translate(0 0)"/><path class="cls-3" d="M274,139.85a.85.85,0,1,1,.85.89A.86.86,0,0,1,274,139.85Z" transform="translate(0 0)"/></svg>