<svg id="Ebene_1" data-name="Ebene 1" xmlns="http://www.w3.org/2000/svg" viewBox="0 0 328.99 179.01"><defs><style>.cls-1{fill:#b6a19e;}.cls-2{font-size:28px;font-family:SansBlack;}.cls-2,.cls-3{fill:#fff;}</style></defs><title>PEOPLE_00-template</title><rect class="cls-1" width="328.99" height="179.01"/><text class="cls-2" transform="translate(28.46 64.46)">B.A.D‘S<tspan x="0" y="33.6">PEOPLE PORTRAIT</tspan></text><path class="cls-3" d="M31.74,131.18h1.35l3.17,9.39H35l-1.64-5.24c-.34-1.05-.64-2.08-.94-3.17h-.06c-.29,1.09-.59,2.12-.92,3.17l-1.66,5.24H28.57Zm-1.51,5.57h4.33v1H30.23Z" transform="translate(0 0)"/><path class="cls-3" d="M37.48,133.62h1l.1,1.26h0a2.39,2.39,0,0,1,2-1.44,1.55,1.55,0,0,1,.74.15l-.22,1a1.87,1.87,0,0,0-.68-.12c-.58,0-1.28.43-1.75,1.6v4.47H37.48Z" transform="translate(0 0)"/><path class="cls-3" d="M42.65,138.42v-3.84h-1v-.9l1.09-.06.14-2h1v2h1.89v1H43.82v3.86c0,.85.28,1.34,1.08,1.34a2.18,2.18,0,0,0,.79-.19l.23.89a4.29,4.29,0,0,1-1.29.26C43.15,140.74,42.65,139.8,42.65,138.42Z" transform="translate(0 0)"/><path class="cls-3" d="M47.06,131.43a.81.81,0,1,1,.81.76A.77.77,0,0,1,47.06,131.43Zm.22,2.19h1.17v6.95H47.28Z" transform="translate(0 0)"/><path class="cls-3" d="M50,139.77l.58-.77a3.13,3.13,0,0,0,2,.82c.92,0,1.37-.49,1.37-1.08s-.82-1-1.59-1.32c-1-.35-2.07-.83-2.07-2s.89-2,2.39-2a3.53,3.53,0,0,1,2.17.79l-.57.75a2.64,2.64,0,0,0-1.58-.62c-.88,0-1.28.47-1.28,1s.75.91,1.54,1.2c1,.38,2.12.79,2.12,2.11,0,1.13-.89,2.07-2.53,2.07A4.18,4.18,0,0,1,50,139.77Z" transform="translate(0 0)"/><path class="cls-3" d="M56.71,138.42v-3.84h-1v-.9l1.09-.06.14-2h1v2h1.88v1H57.88v3.86c0,.85.27,1.34,1.08,1.34a2.23,2.23,0,0,0,.79-.19l.22.89a4.23,4.23,0,0,1-1.28.26C57.21,140.74,56.71,139.8,56.71,138.42Z" transform="translate(0 0)"/><path class="cls-3" d="M60.94,142.3a1.91,1.91,0,0,0,1.28-1.77l-.12-1.05.57.85a.73.73,0,0,1-.59.25.79.79,0,0,1-.85-.82.82.82,0,0,1,.87-.82c.62,0,1,.52,1,1.38A2.81,2.81,0,0,1,61.22,143Z" transform="translate(0 0)"/><path class="cls-3" d="M67.42,135.88c0-3,1.78-4.87,4.16-4.87a3.51,3.51,0,0,1,2.58,1.16l-.65.78a2.57,2.57,0,0,0-1.91-.89c-1.77,0-2.95,1.45-2.95,3.79s1.13,3.84,2.91,3.84a2.8,2.8,0,0,0,2.17-1.06l.65.75a3.6,3.6,0,0,1-2.87,1.36C69.17,140.74,67.42,138.93,67.42,135.88Z" transform="translate(0 0)"/><path class="cls-3" d="M76.13,131.18h5.41v1H77.32v2.94h3.56v1H77.32v3.42h4.36v1H76.13Z" transform="translate(0 0)"/><path class="cls-3" d="M83.12,135.84c0-3,1.65-4.83,4-4.83s4,1.83,4,4.83-1.65,4.9-4,4.9S83.12,138.85,83.12,135.84Zm6.79,0c0-2.34-1.11-3.78-2.78-3.78s-2.78,1.44-2.78,3.78,1.1,3.85,2.78,3.85S89.91,138.18,89.91,135.84Z" transform="translate(0 0)"/><path class="cls-3" d="M92.28,139.77l.58-.77a3.11,3.11,0,0,0,2,.82c.91,0,1.37-.49,1.37-1.08s-.82-1-1.59-1.32c-1-.35-2.08-.83-2.08-2s.89-2,2.4-2a3.5,3.5,0,0,1,2.16.79l-.56.75a2.65,2.65,0,0,0-1.59-.62c-.87,0-1.27.47-1.27,1s.75.91,1.54,1.2c1,.38,2.12.79,2.12,2.11,0,1.13-.9,2.07-2.54,2.07A4.13,4.13,0,0,1,92.28,139.77Z" transform="translate(0 0)"/><path class="cls-3" d="M98.54,142.3a1.9,1.9,0,0,0,1.29-1.77l-.13-1.05.58.85a.73.73,0,0,1-.59.25.8.8,0,0,1-.86-.82.83.83,0,0,1,.88-.82c.62,0,1,.52,1,1.38A2.81,2.81,0,0,1,98.83,143Z" transform="translate(0 0)"/><path class="cls-3" d="M105.57,131.18h2.79c1.9,0,3.22.65,3.22,2.3a2.05,2.05,0,0,1-1.37,2v.06a2.16,2.16,0,0,1,1.91,2.24c0,1.84-1.46,2.75-3.55,2.75h-3Zm2.58,4c1.6,0,2.26-.59,2.26-1.54s-.75-1.51-2.2-1.51h-1.44v3.05Zm.25,4.44c1.6,0,2.55-.58,2.55-1.84s-.91-1.69-2.55-1.69h-1.63v3.53Z" transform="translate(0 0)"/><path class="cls-3" d="M113.78,138v-4.4H115v4.25c0,1.29.39,1.85,1.31,1.85.71,0,1.21-.36,1.86-1.17v-4.93h1.18v6.95h-1l-.1-1.09h0a2.94,2.94,0,0,1-2.29,1.26C114.43,140.74,113.78,139.79,113.78,138Z" transform="translate(0 0)"/><path class="cls-3" d="M121.43,131.43a.82.82,0,0,1,1.63,0,.82.82,0,0,1-1.63,0Zm.22,2.19h1.17v6.95h-1.17Z" transform="translate(0 0)"/><path class="cls-3" d="M124.67,137.1c0-2.25,1.42-3.66,3-3.66a2.86,2.86,0,0,1,1.95.81l0-1.19v-2.68h1.17v10.19h-1l-.1-.82h0a3.07,3.07,0,0,1-2.11,1C125.8,140.74,124.67,139.42,124.67,137.1Zm4.91,1.7v-3.64a2.47,2.47,0,0,0-1.7-.73c-1.11,0-2,1.08-2,2.66s.69,2.66,1.9,2.66A2.43,2.43,0,0,0,129.58,138.8Z" transform="translate(0 0)"/><path class="cls-3" d="M133.1,139.17v-8.79h1.18v8.88c0,.36.16.5.33.5a.94.94,0,0,0,.25,0l.16.9a1.81,1.81,0,0,1-.67.11C133.47,140.74,133.1,140.17,133.1,139.17Z" transform="translate(0 0)"/><path class="cls-3" d="M136.23,137.1a3.36,3.36,0,0,1,3.13-3.66c1.77,0,2.77,1.28,2.77,3.27a4.13,4.13,0,0,1,0,.66H137.4a2.3,2.3,0,0,0,2.3,2.43,3,3,0,0,0,1.73-.56l.42.78a4,4,0,0,1-2.29.72A3.33,3.33,0,0,1,136.23,137.1Zm4.86-.57c0-1.39-.63-2.15-1.71-2.15a2.14,2.14,0,0,0-2,2.15Z" transform="translate(0 0)"/><path class="cls-3" d="M143.84,133.62h1l.1,1.26h0a2.42,2.42,0,0,1,2-1.44,1.53,1.53,0,0,1,.74.15l-.22,1a1.85,1.85,0,0,0-.67-.12c-.59,0-1.29.43-1.76,1.6v4.47h-1.18Z" transform="translate(0 0)"/><path class="cls-3" d="M148,139.77l.58-.77a3.09,3.09,0,0,0,2.05.82c.91,0,1.36-.49,1.36-1.08s-.82-1-1.59-1.32c-1-.35-2.07-.83-2.07-2s.89-2,2.4-2a3.52,3.52,0,0,1,2.16.79l-.56.75a2.65,2.65,0,0,0-1.59-.62c-.87,0-1.28.47-1.28,1s.76.91,1.55,1.2c1,.38,2.11.79,2.11,2.11,0,1.13-.89,2.07-2.53,2.07A4.13,4.13,0,0,1,148,139.77Z" transform="translate(0 0)"/><path class="cls-3" d="M154.24,142.3a1.92,1.92,0,0,0,1.29-1.77l-.13-1.05.58.85a.73.73,0,0,1-.6.25.8.8,0,0,1-.85-.82.82.82,0,0,1,.87-.82c.63,0,1,.52,1,1.38a2.82,2.82,0,0,1-1.87,2.67Z" transform="translate(0 0)"/><path class="cls-3" d="M160.72,135.88c0-3,1.79-4.87,4.17-4.87a3.51,3.51,0,0,1,2.58,1.16l-.66.78a2.53,2.53,0,0,0-1.9-.89c-1.77,0-2.95,1.45-2.95,3.79s1.12,3.84,2.9,3.84a2.81,2.81,0,0,0,2.18-1.06l.65.75a3.62,3.62,0,0,1-2.88,1.36C162.48,140.74,160.72,138.93,160.72,135.88Z" transform="translate(0 0)"/><path class="cls-3" d="M169.32,133.62h1l.1,1.26h0a2.42,2.42,0,0,1,2-1.44,1.53,1.53,0,0,1,.74.15l-.22,1a1.81,1.81,0,0,0-.67-.12c-.59,0-1.29.43-1.76,1.6v4.47h-1.18Z" transform="translate(0 0)"/><path class="cls-3" d="M173.63,137.1c0-2.26,1.52-3.66,3.12-3.66,1.77,0,2.77,1.28,2.77,3.27a4.13,4.13,0,0,1-.05.66h-4.68a2.3,2.3,0,0,0,2.31,2.43,3,3,0,0,0,1.73-.56l.42.78a4.08,4.08,0,0,1-2.3.72A3.32,3.32,0,0,1,173.63,137.1Zm4.86-.57c0-1.39-.63-2.15-1.72-2.15a2.14,2.14,0,0,0-2,2.15Z" transform="translate(0 0)"/><path class="cls-3" d="M180.61,138.76c0-1.51,1.3-2.27,4.26-2.59,0-.9-.3-1.76-1.43-1.76a3.78,3.78,0,0,0-2.07.75l-.46-.81a5.09,5.09,0,0,1,2.73-.91c1.69,0,2.41,1.13,2.41,2.86v4.27h-1l-.1-.83h0a3.7,3.7,0,0,1-2.3,1A1.89,1.89,0,0,1,180.61,138.76Zm4.26.11v-1.93c-2.32.28-3.11.85-3.11,1.74s.53,1.11,1.22,1.11A2.85,2.85,0,0,0,184.87,138.87Z" transform="translate(0 0)"/><path class="cls-3" d="M188.25,138.42v-3.84h-1v-.9l1.08-.06.14-2h1v2h1.88v1h-1.88v3.86c0,.85.27,1.34,1.07,1.34a2.13,2.13,0,0,0,.79-.19l.23.89a4.29,4.29,0,0,1-1.29.26C188.75,140.74,188.25,139.8,188.25,138.42Z" transform="translate(0 0)"/><path class="cls-3" d="M192.66,131.43a.82.82,0,0,1,1.63,0,.82.82,0,0,1-1.63,0Zm.22,2.19h1.17v6.95h-1.17Z" transform="translate(0 0)"/><path class="cls-3" d="M195.39,133.62h1.21l1.32,3.94c.21.68.43,1.39.64,2.05h.06c.21-.66.43-1.37.64-2.05l1.31-3.94h1.16l-2.46,6.95H197.9Z" transform="translate(0 0)"/><path class="cls-3" d="M202.5,137.1c0-2.26,1.52-3.66,3.12-3.66,1.78,0,2.78,1.28,2.78,3.27a3.16,3.16,0,0,1-.06.66h-4.68A2.32,2.32,0,0,0,206,139.8a3,3,0,0,0,1.73-.56l.42.78a4.07,4.07,0,0,1-2.29.72A3.32,3.32,0,0,1,202.5,137.1Zm4.86-.57c0-1.39-.63-2.15-1.72-2.15a2.14,2.14,0,0,0-2,2.15Z" transform="translate(0 0)"/><path class="cls-3" d="M209.34,139.77l.58-.77a3.09,3.09,0,0,0,2.05.82c.91,0,1.36-.49,1.36-1.08s-.82-1-1.58-1.32c-1-.35-2.08-.83-2.08-2s.89-2,2.4-2a3.5,3.5,0,0,1,2.16.79l-.56.75a2.65,2.65,0,0,0-1.59-.62c-.87,0-1.28.47-1.28,1s.76.91,1.55,1.2c1,.38,2.12.79,2.12,2.11,0,1.13-.9,2.07-2.54,2.07A4.13,4.13,0,0,1,209.34,139.77Z" transform="translate(0 0)"/><path class="cls-3" d="M215.6,142.3a1.9,1.9,0,0,0,1.29-1.77l-.13-1.05.58.85a.73.73,0,0,1-.6.25.8.8,0,0,1-.85-.82.83.83,0,0,1,.88-.82c.62,0,1,.52,1,1.38a2.82,2.82,0,0,1-1.87,2.67Z" transform="translate(0 0)"/><path class="cls-3" d="M222.63,131.18h1.44l1.8,5,.66,2h.06c.23-.65.42-1.31.65-2l1.78-5h1.43v9.39h-1.1V135.4c0-.82.09-2,.15-2.78h-.06l-.75,2.14-1.76,4.86h-.79l-1.78-4.86-.74-2.14h-.06c.06.83.15,2,.15,2.78v5.17h-1.08Z" transform="translate(0 0)"/><path class="cls-3" d="M232.4,137.1c0-2.32,1.52-3.66,3.22-3.66s3.22,1.34,3.22,3.66a3.24,3.24,0,1,1-6.44,0Zm5.23,0c0-1.59-.81-2.68-2-2.68s-2,1.09-2,2.68.82,2.66,2,2.66S237.63,138.69,237.63,137.1Z" transform="translate(0 0)"/><path class="cls-3" d="M240.15,137.1c0-2.32,1.52-3.66,3.22-3.66s3.22,1.34,3.22,3.66a3.24,3.24,0,1,1-6.44,0Zm5.23,0c0-1.59-.81-2.68-2-2.68s-2,1.09-2,2.68.81,2.66,2,2.66S245.38,138.69,245.38,137.1Z" transform="translate(0 0)"/><path class="cls-3" d="M248.42,133.62h1l.1,1h0a3.31,3.31,0,0,1,2.33-1.18c1.46,0,2.12.95,2.12,2.72v4.41H252.8v-4.26c0-1.29-.39-1.84-1.31-1.84a2.65,2.65,0,0,0-1.9,1.06v5h-1.17Z" transform="translate(0 0)"/><path class="cls-3" d="M255.72,137.1a3.36,3.36,0,0,1,3.13-3.66c1.77,0,2.77,1.28,2.77,3.27a4.13,4.13,0,0,1-.05.66h-4.68a2.3,2.3,0,0,0,2.3,2.43,3,3,0,0,0,1.73-.56l.43.78a4.08,4.08,0,0,1-2.3.72A3.33,3.33,0,0,1,255.72,137.1Zm4.86-.57c0-1.39-.63-2.15-1.71-2.15a2.14,2.14,0,0,0-2,2.15Z" transform="translate(0 0)"/><path class="cls-3" d="M263.33,133.62h1l.1,1.26h0a2.42,2.42,0,0,1,2-1.44,1.53,1.53,0,0,1,.74.15l-.22,1a1.85,1.85,0,0,0-.67-.12c-.59,0-1.29.43-1.76,1.6v4.47h-1.18Z" transform="translate(0 0)"/><path class="cls-3" d="M267.47,139.77l.58-.77a3.09,3.09,0,0,0,2.05.82c.91,0,1.36-.49,1.36-1.08s-.82-1-1.59-1.32c-1-.35-2.07-.83-2.07-2s.89-2,2.4-2a3.52,3.52,0,0,1,2.16.79l-.56.75a2.65,2.65,0,0,0-1.59-.62c-.87,0-1.28.47-1.28,1s.76.91,1.55,1.2c1,.38,2.11.79,2.11,2.11,0,1.13-.89,2.07-2.53,2.07A4.13,4.13,0,0,1,267.47,139.77Z" transform="translate(0 0)"/><path class="cls-3" d="M276.85,139.85a.85.85,0,1,1,.85.89A.86.86,0,0,1,276.85,139.85Z" transform="translate(0 0)"/><path class="cls-3" d="M280.41,139.85a.85.85,0,1,1,.85.89A.86.86,0,0,1,280.41,139.85Z" transform="translate(0 0)"/><path class="cls-3" d="M284,139.85a.85.85,0,1,1,.85.89A.86.86,0,0,1,284,139.85Z" transform="translate(0 0)"/></svg>